<svg version="1.1" viewBox="0.0 0.0 411.8871391076116 143.60629921259843" fill="none" stroke="none" stroke-linecap="square" stroke-miterlimit="10" xmlns:xlink="http://www.w3.org/1999/xlink" xmlns="http://www.w3.org/2000/svg"><clipPath id="p.0"><path d="m0 0l411.88715 0l0 143.6063l-411.88715 0l0 -143.6063z" clip-rule="nonzero"/></clipPath><g clip-path="url(#p.0)"><path fill="#000000" fill-opacity="0.0" d="m0 0l411.88715 0l0 143.6063l-411.88715 0z" fill-rule="evenodd"/><path fill="#000000" fill-opacity="0.0" d="m0.002624672 0.0131233595l412.18896 0l0 144.85039l-412.18896 0z" fill-rule="evenodd"/><path fill="#000000" d="m47.112 91.95437q-0.953125 -2.296875 -2.546875 -5.84375q-1.578125 -3.5625 -3.40625 -7.6875q-1.8125 -4.125 -3.890625 -8.484375q-2.0625 -4.375 -3.890625 -8.265625q-1.8125 -3.890625 -3.40625 -6.953125q-1.578125 -3.078125 -2.53125 -4.71875q-1.0625 11.328125 -1.734375 24.53125q-0.671875 13.203125 -1.15625 26.640625l-9.109375 0q0.375 -8.640625 0.859375 -17.421875q0.484375 -8.78125 1.109375 -17.28125q0.625 -8.5 1.34375 -16.5625q0.71875 -8.0625 1.578125 -15.265625l8.15625 0q2.59375 4.234375 5.5625 10.0q2.984375 5.75 5.953125 12.046875q2.984375 6.28125 5.765625 12.578125q2.78125 6.28125 5.09375 11.453125q2.296875 -5.171875 5.078125 -11.453125q2.796875 -6.296875 5.765625 -12.578125q2.984375 -6.296875 5.953125 -12.046875q2.96875 -5.765625 5.5625 -10.0l8.171875 0q3.25 32.15625 4.890625 66.53125l-9.125 0q-0.46875 -13.4375 -1.140625 -26.640625q-0.671875 -13.203125 -1.734375 -24.53125q-0.96875 1.640625 -2.546875 4.71875q-1.578125 3.0625 -3.40625 6.953125q-1.828125 3.890625 -3.890625 8.265625q-2.0625 4.359375 -3.890625 8.484375q-1.8125 4.125 -3.40625 7.6875q-1.578125 3.546875 -2.546875 5.84375l-7.484375 0zm47.334717 18.53125q1.046875 0.484375 2.71875 0.90625q1.6875 0.4375 3.328125 0.4375q5.28125 0 8.25 -2.359375q2.984375 -2.34375 5.375 -7.625q-6.046875 -11.515625 -11.28125 -24.421875q-5.234375 -12.921875 -8.6875 -26.171875l9.609375 0q1.046875 4.328125 2.53125 9.328125q1.5 4.984375 3.3125 10.265625q1.828125 5.265625 3.9375 10.546875q2.125 5.28125 4.421875 10.1875q3.640625 -10.09375 6.328125 -19.96875q2.703125 -9.890625 5.09375 -20.359375l9.21875 0q-3.453125 14.109375 -7.6875 27.125q-4.21875 13.0 -9.109375 24.328125q-1.921875 4.328125 -3.984375 7.4375q-2.0625 3.125 -4.5625 5.140625q-2.5 2.015625 -5.625 2.96875q-3.109375 0.96875 -7.046875 0.96875q-1.0625 0 -2.21875 -0.140625q-1.140625 -0.140625 -2.25 -0.390625q-1.09375 -0.234375 -2.015625 -0.53125q-0.90625 -0.28125 -1.296875 -0.46875l1.640625 -7.203125zm45.493225 0.859375l48.0 0l0 7.59375l-48.0 0l0 -7.59375z" fill-rule="nonzero"/><path fill="#666666" d="m250.43755 67.86062q0 8.640625 -2.6875 15.03125q-2.6875 6.375 -7.578125 10.5625q-4.890625 4.171875 -11.71875 6.234375q-6.8125 2.0625 -14.96875 2.0625q-4.03125 0 -8.890625 -0.34375q-4.84375 -0.328125 -8.78125 -1.296875l0 -64.5q3.9375 -0.96875 8.78125 -1.296875q4.859375 -0.34375 8.890625 -0.34375q8.15625 0 14.96875 2.0625q6.828125 2.0625 11.71875 6.25q4.890625 4.171875 7.578125 10.5625q2.6875 6.375 2.6875 15.015625zm-36.1875 25.734375q13.25 0 19.765625 -6.765625q6.53125 -6.78125 6.53125 -18.96875q0 -12.1875 -6.53125 -18.953125q-6.515625 -6.78125 -19.765625 -6.78125q-3.9375 0 -6.09375 0.109375q-2.15625 0.09375 -3.03125 0.1875l0 50.875q0.875 0.09375 3.03125 0.203125q2.15625 0.09375 6.09375 0.09375zm93.51045 -17.375q0 5.9375 -1.734375 10.75q-1.734375 4.796875 -4.859375 8.25q-3.109375 3.453125 -7.4375 5.328125q-4.3125 1.875 -9.40625 1.875q-5.078125 0 -9.40625 -1.875q-4.3125 -1.875 -7.4375 -5.328125q-3.109375 -3.453125 -4.84375 -8.25q-1.734375 -4.8125 -1.734375 -10.75q0 -5.859375 1.734375 -10.703125q1.734375 -4.859375 4.84375 -8.3125q3.125 -3.453125 7.4375 -5.328125q4.328125 -1.875 9.40625 -1.875q5.09375 0 9.40625 1.875q4.328125 1.875 7.4375 5.328125q3.125 3.453125 4.859375 8.3125q1.734375 4.84375 1.734375 10.703125zm-9.3125 0q0 -8.453125 -3.796875 -13.390625q-3.796875 -4.953125 -10.328125 -4.953125q-6.515625 0 -10.3125 4.953125q-3.796875 4.9375 -3.796875 13.390625q0 8.4375 3.796875 13.390625q3.796875 4.9375 10.3125 4.9375q6.53125 0 10.328125 -4.9375q3.796875 -4.953125 3.796875 -13.390625zm43.577484 26.109375q-6.046875 0 -10.609375 -1.921875q-4.5625 -1.921875 -7.6875 -5.375q-3.109375 -3.453125 -4.65625 -8.203125q-1.53125 -4.765625 -1.53125 -10.515625q0 -5.765625 1.671875 -10.5625q1.6875 -4.796875 4.765625 -8.296875q3.078125 -3.515625 7.53125 -5.484375q4.46875 -1.96875 9.9375 -1.96875q3.359375 0 6.71875 0.578125q3.359375 0.578125 6.4375 1.828125l-2.015625 7.578125q-2.015625 -0.953125 -4.65625 -1.53125q-2.640625 -0.578125 -5.625 -0.578125q-7.484375 0 -11.46875 4.703125q-3.984375 4.703125 -3.984375 13.734375q0 4.03125 0.90625 7.390625q0.921875 3.359375 2.890625 5.765625q1.96875 2.390625 5.03125 3.6875q3.078125 1.296875 7.5 1.296875q3.546875 0 6.421875 -0.671875q2.890625 -0.671875 4.515625 -1.4375l1.25 7.484375q-0.765625 0.484375 -2.203125 0.921875q-1.4375 0.421875 -3.265625 0.75q-1.828125 0.34375 -3.890625 0.578125q-2.0625 0.25 -3.984375 0.25zm34.56186 -7.59375q5.46875 0 8.109375 -1.4375q2.640625 -1.4375 2.640625 -4.609375q0 -3.265625 -2.59375 -5.171875q-2.59375 -1.921875 -8.546875 -4.328125q-2.875 -1.15625 -5.515625 -2.34375q-2.640625 -1.203125 -4.5625 -2.828125q-1.921875 -1.640625 -3.078125 -3.9375q-1.140625 -2.3125 -1.140625 -5.671875q0 -6.625 4.890625 -10.515625q4.90625 -3.890625 13.34375 -3.890625q2.109375 0 4.21875 0.25q2.125 0.234375 3.9375 0.578125q1.828125 0.328125 3.21875 0.71875q1.390625 0.375 2.171875 0.671875l-1.640625 7.671875q-1.4375 -0.765625 -4.515625 -1.578125q-3.0625 -0.828125 -7.390625 -0.828125q-3.734375 0 -6.53125 1.5q-2.78125 1.484375 -2.78125 4.65625q0 1.625 0.625 2.875q0.625 1.25 1.921875 2.265625q1.296875 1.0 3.21875 1.875q1.921875 0.859375 4.609375 1.8125q3.546875 1.34375 6.328125 2.640625q2.796875 1.296875 4.75 3.03125q1.96875 1.71875 3.03125 4.171875q1.0625 2.4375 1.0625 6.0q0 6.90625 -5.140625 10.46875q-5.140625 3.546875 -14.640625 3.546875q-6.625 0 -10.375 -1.109375q-3.734375 -1.109375 -5.078125 -1.671875l1.625 -7.6875q1.546875 0.578125 4.90625 1.734375q3.359375 1.140625 8.921875 1.140625z" fill-rule="nonzero"/></g></svg>