<svg version="1.1" viewBox="0.0 0.0 421.50656167979 112.78215223097114" fill="none" stroke="none" stroke-linecap="square" stroke-miterlimit="10" xmlns:xlink="http://www.w3.org/1999/xlink" xmlns="http://www.w3.org/2000/svg"><clipPath id="p.0"><path d="m0 0l421.50656 0l0 112.78215l-421.50656 0l0 -112.78215z" clip-rule="nonzero"/></clipPath><g clip-path="url(#p.0)"><path fill="#000000" fill-opacity="0.0" d="m0 0l421.50656 0l0 112.78215l-421.50656 0z" fill-rule="evenodd"/><path fill="#000000" fill-opacity="0.0" d="m-11.248032 0l444.50397 0l0 156.12599l-444.50397 0z" fill-rule="evenodd"/><path fill="#000000" d="m13.564468 66.01813q9.71875 0 9.71875 -6.65625q0 -2.046875 -0.859375 -3.484375q-0.859375 -1.4375 -2.34375 -2.484375q-1.46875 -1.0625 -3.359375 -1.828125q-1.875 -0.765625 -4.0 -1.546875q-2.421875 -0.828125 -4.609375 -1.875q-2.171875 -1.0625 -3.78125 -2.5q-1.5937498 -1.4375 -2.515625 -3.421875q-0.921875 -1.984375 -0.921875 -4.8125q0 -5.8125 3.96875 -9.078125q3.96875 -3.265625 10.9375 -3.265625q4.03125 0 7.328125 0.875q3.296875 0.859375 4.828125 1.875l-1.984375 5.0625q-1.34375 -0.84375 -4.0 -1.640625q-2.65625 -0.796875 -6.171875 -0.796875q-1.796875 0 -3.328125 0.390625q-1.53125 0.375 -2.6875 1.140625q-1.15625 0.765625 -1.828125 1.953125q-0.671875 1.1875 -0.671875 2.78125q0 1.796875 0.703125 3.015625q0.703125 1.21875 1.984375 2.15625q1.28125 0.921875 2.96875 1.6875q1.703125 0.765625 3.75 1.53125q2.890625 1.15625 5.28125 2.3125q2.40625 1.140625 4.15625 2.75q1.765625 1.59375 2.71875 3.8125q0.96875 2.203125 0.96875 5.328125q0 5.828125 -4.265625 8.96875q-4.25 3.125 -11.984375 3.125q-2.625 0 -4.84375 -0.359375q-2.203125 -0.34375 -3.9375 -0.8125q-1.7187498 -0.484375 -2.96875 -1.03125q-1.25 -0.546875 -1.953125 -0.921875l1.859375 -5.125q1.4687501 0.828125 4.46875 1.859375q3.015625 1.015625 7.375 1.015625zm37.81357 5.1875q-4.03125 0 -7.078125 -1.28125q-3.03125 -1.28125 -5.109375 -3.578125q-2.078125 -2.3125 -3.109375 -5.46875q-1.015625 -3.171875 -1.015625 -7.015625q0 -3.84375 1.109375 -7.03125q1.125 -3.203125 3.171875 -5.53125q2.046875 -2.34375 5.015625 -3.65625q2.984375 -1.3125 6.640625 -1.3125q2.234375 0 4.46875 0.390625q2.25 0.375 4.296875 1.203125l-1.34375 5.0625q-1.34375 -0.640625 -3.109375 -1.015625q-1.75 -0.390625 -3.734375 -0.390625q-5.0 0 -7.65625 3.140625q-2.65625 3.125 -2.65625 9.140625q0 2.6875 0.609375 4.9375q0.609375 2.234375 1.921875 3.84375q1.3125 1.59375 3.359375 2.453125q2.046875 0.859375 5.0 0.859375q2.359375 0 4.28125 -0.4375q1.921875 -0.453125 3.0 -0.96875l0.84375 5.0q-0.515625 0.3125 -1.484375 0.609375q-0.953125 0.28125 -2.171875 0.5q-1.21875 0.234375 -2.59375 0.390625q-1.375 0.15625 -2.65625 0.15625zm27.588074 -34.75q0.765625 0 1.75 0.09375q1.0 0.09375 1.953125 0.265625q0.96875 0.15625 1.765625 0.3125q0.8125 0.15625 1.1875 0.28125l-1.015625 5.1875q-0.703125 -0.25 -2.34375 -0.59375q-1.625 -0.359375 -4.1875 -0.359375q-1.671875 0 -3.3125 0.359375q-1.625 0.34375 -2.125 0.46875l0 27.96875l-5.953125 0l0 -31.875q2.109375 -0.765625 5.234375 -1.4375q3.140625 -0.671875 7.046875 -0.671875zm38.90709 33.03125q-2.046875 0.5 -5.40625 1.078125q-3.359375 0.578125 -7.765625 0.578125q-3.84375 0 -6.46875 -1.109375q-2.625 -1.125 -4.234375 -3.171875q-1.59375 -2.046875 -2.296875 -4.828125q-0.703125 -2.796875 -0.703125 -6.1875l0 -18.6875l5.953125 0l0 17.40625q0 6.078125 1.921875 8.703125q1.921875 2.625 6.46875 2.625q0.953125 0 1.96875 -0.0625q1.03125 -0.0625 1.921875 -0.15625q0.90625 -0.09375 1.640625 -0.1875q0.734375 -0.109375 1.046875 -0.234375l0 -28.09375l5.953125 0l0 32.328125zm16.204681 -30.859375q1.078125 -0.703125 3.28125 -1.46875q2.21875 -0.765625 5.09375 -0.765625q3.59375 0 6.375 1.28125q2.78125 1.28125 4.703125 3.59375q1.921875 2.296875 2.90625 5.5q1.0 3.1875 1.0 7.03125q0 4.03125 -1.1875 7.265625q-1.1875 3.234375 -3.359375 5.484375q-2.171875 2.234375 -5.25 3.453125q-3.078125 1.203125 -6.90625 1.203125q-4.171875 0 -7.375 -0.578125q-3.1875 -0.578125 -5.234375 -1.140625l0 -47.6875l5.953125 -1.015625l0 17.84375zm0 26.625q0.890625 0.265625 2.515625 0.484375q1.640625 0.21875 4.0625 0.21875q4.8125 0 7.6875 -3.15625q2.875 -3.171875 2.875 -9.0q0 -2.5625 -0.515625 -4.796875q-0.5 -2.25 -1.65625 -3.875q-1.15625 -1.625 -2.984375 -2.546875q-1.8125 -0.9375 -4.375 -0.9375q-2.4375 0 -4.484375 0.828125q-2.046875 0.828125 -3.125 1.734375l0 21.046875zm37.69594 5.1875l-5.953125 0l0 -33.28125l5.953125 0l0 33.28125zm-3.015625 -39.296875q-1.59375 0 -2.71875 -1.046875q-1.125 -1.0625 -1.125 -2.859375q0 -1.78125 1.125 -2.84375q1.125 -1.0625 2.71875 -1.0625q1.59375 0 2.71875 1.0625q1.125 1.0625 1.125 2.84375q0 1.796875 -1.125 2.859375q-1.125 1.046875 -2.71875 1.046875zm14.082596 4.09375q3.640625 -1.40625 7.09375 -3.609375q3.46875 -2.21875 6.34375 -5.546875l4.21875 0l0 44.359375l-5.953125 0l0 -36.09375q-0.765625 0.703125 -1.890625 1.46875q-1.109375 0.765625 -2.421875 1.46875q-1.3125 0.703125 -2.75 1.34375q-1.4375 0.640625 -2.78125 1.09375l-1.859375 -4.484375zm62.205307 8.578125q0 13.1875 -6.5625 19.9375q-6.5625 6.75 -19.484375 6.8125l-0.1875 -4.984375q4.03125 0 7.25 -0.765625q3.234375 -0.78125 5.671875 -2.46875q2.4375 -1.703125 4.0625 -4.390625q1.640625 -2.6875 2.40625 -6.59375q-1.671875 0.78125 -3.78125 1.265625q-2.109375 0.46875 -4.34375 0.46875q-3.78125 0 -6.40625 -1.109375q-2.625 -1.125 -4.296875 -3.015625q-1.65625 -1.890625 -2.390625 -4.34375q-0.734375 -2.46875 -0.734375 -5.15625q0 -2.375 0.828125 -4.9375q0.828125 -2.5625 2.515625 -4.671875q1.703125 -2.109375 4.328125 -3.453125q2.625 -1.34375 6.21875 -1.34375q3.640625 0 6.421875 1.28125q2.796875 1.28125 4.671875 3.71875q1.890625 2.421875 2.84375 5.921875q0.96875 3.484375 0.96875 7.828125zm-14.328125 4.421875q2.234375 0 4.21875 -0.421875q1.984375 -0.421875 3.84375 -1.25q0.0625 -0.703125 0.0625 -1.375q0 -0.671875 0 -1.375q0 -2.75 -0.390625 -5.28125q-0.375 -2.53125 -1.375 -4.40625q-0.984375 -1.890625 -2.65625 -3.015625q-1.65625 -1.125 -4.21875 -1.125q-2.109375 0 -3.59375 0.90625q-1.46875 0.890625 -2.4375 2.265625q-0.953125 1.375 -1.375 3.015625q-0.40625 1.625 -0.40625 3.15625q0 4.359375 2.078125 6.640625q2.078125 2.265625 6.25 2.265625zm18.111572 28.984375l32.000015 0l0 5.0625l-32.000015 0l0 -5.0625z" fill-rule="nonzero"/><path fill="#666666" d="m322.48935 48.236877q0 5.75 -1.796875 10.015625q-1.796875 4.25 -5.0625 7.03125q-3.25 2.78125 -7.796875 4.171875q-4.546875 1.375 -9.984375 1.375q-2.6875 0 -5.921875 -0.234375q-3.234375 -0.21875 -5.859375 -0.859375l0 -43.015625q2.625 -0.640625 5.859375 -0.859375q3.234375 -0.21875 5.921875 -0.21875q5.4375 0 9.984375 1.375q4.546875 1.375 7.796875 4.15625q3.265625 2.78125 5.0625 7.046875q1.796875 4.25 1.796875 10.015625zm-24.125 17.140625q8.828125 0 13.171875 -4.5q4.359375 -4.515625 4.359375 -12.640625q0 -8.140625 -4.359375 -12.640625q-4.34375 -4.515625 -13.171875 -4.515625q-2.625 0 -4.078125 0.0625q-1.4375 0.0625 -2.0 0.125l0 33.921875q0.5625 0.0625 2.0 0.125q1.453125 0.0625 4.078125 0.0625zm62.335052 -11.578125q0 3.96875 -1.15625 7.171875q-1.15625 3.203125 -3.234375 5.515625q-2.078125 2.296875 -4.96875 3.546875q-2.875 1.234375 -6.265625 1.234375q-3.390625 0 -6.265625 -1.234375q-2.875 -1.25 -4.96875 -3.546875q-2.078125 -2.3125 -3.234375 -5.515625q-1.140625 -3.203125 -1.140625 -7.171875q0 -3.90625 1.140625 -7.140625q1.15625 -3.234375 3.234375 -5.53125q2.09375 -2.296875 4.96875 -3.546875q2.875 -1.25 6.265625 -1.25q3.390625 0 6.265625 1.25q2.890625 1.25 4.96875 3.546875q2.078125 2.296875 3.234375 5.53125q1.15625 3.234375 1.15625 7.140625zm-6.21875 0q0 -5.625 -2.53125 -8.921875q-2.515625 -3.296875 -6.875 -3.296875q-4.34375 0 -6.875 3.296875q-2.53125 3.296875 -2.53125 8.921875q0 5.625 2.53125 8.921875q2.53125 3.296875 6.875 3.296875q4.359375 0 6.875 -3.296875q2.53125 -3.296875 2.53125 -8.921875zm29.056793 17.40625q-4.03125 0 -7.078125 -1.28125q-3.03125 -1.28125 -5.109375 -3.578125q-2.078125 -2.3125 -3.109375 -5.46875q-1.015625 -3.171875 -1.015625 -7.015625q0 -3.84375 1.109375 -7.03125q1.125 -3.203125 3.171875 -5.53125q2.046875 -2.34375 5.015625 -3.65625q2.984375 -1.3125 6.640625 -1.3125q2.234375 0 4.46875 0.390625q2.25 0.375 4.296875 1.203125l-1.34375 5.0625q-1.34375 -0.640625 -3.109375 -1.015625q-1.75 -0.390625 -3.734375 -0.390625q-5.0 0 -7.65625 3.140625q-2.65625 3.125 -2.65625 9.140625q0 2.6875 0.609375 4.9375q0.609375 2.234375 1.921875 3.84375q1.3125 1.59375 3.359375 2.453125q2.046875 0.859375 5.0 0.859375q2.359375 0 4.28125 -0.4375q1.921875 -0.453125 3.0 -0.96875l0.84375 5.0q-0.515625 0.3125 -1.484375 0.609375q-0.953125 0.28125 -2.171875 0.5q-1.21875 0.234375 -2.59375 0.390625q-1.375 0.15625 -2.65625 0.15625zm23.041199 -5.046875q3.65625 0 5.40625 -0.953125q1.765625 -0.96875 1.765625 -3.078125q0 -2.1875 -1.734375 -3.46875q-1.71875 -1.28125 -5.6875 -2.875q-1.921875 -0.765625 -3.6875 -1.5625q-1.75 -0.8125 -3.03125 -1.890625q-1.28125 -1.09375 -2.046875 -2.625q-0.765625 -1.53125 -0.765625 -3.78125q0 -4.40625 3.25 -7.0q3.265625 -2.59375 8.90625 -2.59375q1.40625 0 2.8125 0.15625q1.40625 0.15625 2.625 0.390625q1.21875 0.21875 2.140625 0.484375q0.9375 0.25 1.4375 0.4375l-1.078125 5.125q-0.96875 -0.515625 -3.015625 -1.0625q-2.046875 -0.546875 -4.921875 -0.546875q-2.5 0 -4.359375 1.0q-1.84375 0.984375 -1.84375 3.09375q0 1.09375 0.40625 1.9375q0.421875 0.828125 1.28125 1.5q0.859375 0.671875 2.140625 1.25q1.28125 0.5625 3.078125 1.203125q2.359375 0.90625 4.21875 1.765625q1.859375 0.859375 3.171875 2.015625q1.3125 1.15625 2.015625 2.796875q0.703125 1.625 0.703125 3.984375q0 4.609375 -3.421875 6.984375q-3.421875 2.359375 -9.765625 2.359375q-4.40625 0 -6.90625 -0.734375q-2.5 -0.734375 -3.390625 -1.125l1.078125 -5.109375q1.03125 0.375 3.265625 1.15625q2.25 0.765625 5.953125 0.765625z" fill-rule="nonzero"/></g></svg>